<svg width="36" height="32" viewBox="0 0 36 32" fill="none" xmlns="http://www.w3.org/2000/svg">
<path d="M8.39531 0.142608C10.0336 -0.140958 11.6859 0.0037487 13.1555 0.532147L16.7203 6.19398L11.4117 11.7045C11.3063 11.8215 11.1867 11.9092 11.25 12.1357C11.25 12.2892 11.257 12.4427 11.4328 12.5523L19.3078 20.1531C19.5117 20.3504 19.7648 20.3577 20.0461 20.175C20.2641 19.985 20.3133 19.6634 20.1656 19.4149L15.9187 12.2453L22.2961 6.72019C22.4789 6.50093 22.5492 6.31091 22.4648 6.07704L20.8687 1.43181C22.8797 0.210577 25.2563 -0.26447 27.6047 0.142608C32.4492 0.981615 36 5.33889 36 10.4475V10.8714C36 13.9044 34.7906 16.8058 32.6531 18.8741L19.9477 31.2034C19.4203 31.715 18.7242 32 18 32C17.2758 32 16.5797 31.715 16.0523 31.2034L3.34617 18.8741C1.21148 16.8058 0 13.9044 0 10.8714V10.4475C0 5.33889 3.55219 0.981615 8.39531 0.141878V0.142608Z" fill="black"/>
</svg>
