<svg width="36" height="32" viewBox="0 0 36 32" fill="none" xmlns="http://www.w3.org/2000/svg">
<path d="M0 10.8712V10.4473C0 5.33867 3.55219 0.981358 8.39531 0.142345C11.5383 -0.412368 14.8641 0.673671 17.1562 3.05989L18 3.93545L18.7805 3.05989C21.1359 0.673671 24.3984 -0.412368 27.6047 0.142345C32.4492 0.981358 36 5.33867 36 10.4473V10.8712C36 13.9042 34.7906 16.8057 32.6531 18.874L19.9477 31.2034C19.4203 31.715 18.7242 32 18 32C17.2758 32 16.5797 31.715 16.0523 31.2034L3.34617 18.874C1.21148 16.8057 2.10938e-05 13.9042 2.10938e-05 10.8712H0Z" fill="black"/>
</svg>
